<svg width="160" height="160" viewBox="0 0 160 160" fill="none" xmlns="http://www.w3.org/2000/svg">
    <g clip-path="url(#clip0_44_2)">
        <path d="M156.54 77.4107V34.6675L113.73 2.74593C113.73 2.74593 82.5946 2.74594 80 2.74593C77.4055 2.74591 56.6487 2.74593 56.6487 2.74593L45.8379 2.74591L3.45949 34.6675V77.2981C3.45949 99.2691 16.7087 119.913 39.0998 132.83L80.2098 156.545L121.083 132.837C143.368 119.911 156.54 99.3187 156.54 77.4107Z" fill="url(#paint0_linear_44_2)"/>
        <path fill-rule="evenodd" clip-rule="evenodd" d="M44.4577 0L56.6487 1.76765e-05V1.92558C56.6487 1.7643e-05 56.6487 1.76765e-05 56.6487 1.76765e-05H113.729C113.729 1.76765e-05 113.73 1.7643e-05 113.73 2.74596L113.729 1.76765e-05L115.1 1.70218e-05L160 33.4796V77.4108C160 100.195 146.299 121.611 123.124 135.054L80.2153 159.943L37.066 135.051C13.7792 121.617 0 100.148 0 77.2981V33.4878L44.4577 0ZM112.36 5.49191L80.2153 13L56.6487 8C56.6487 8 56.6487 5.49191 56.6487 2.74596V8L47.218 5.4919L6.91892 35.8473V77.2981C6.91892 98.3903 19.638 118.208 41.1336 130.609L80.2041 153.148L119.041 130.62C140.435 118.211 153.081 98.4424 153.081 77.4108V35.8556L112.36 5.49191Z" fill="#042585"/>
        <path d="M109.819 77.1907C109.669 75.7742 108.374 74.7188 106.839 74.7188H84.1122C82.4566 74.7188 81.102 75.9686 81.102 77.4962V82.2455C81.102 83.773 82.4566 85.0228 84.1122 85.0228H97.6883C97.3571 87.578 95.551 91.4386 91.5474 94.0215C88.9888 95.6601 85.5872 96.7989 81.102 96.7989C80.8913 96.7989 80.7107 96.7989 80.5 96.7711C72.824 96.5489 66.322 91.7996 63.974 85.2728C63.3419 83.5231 62.9806 81.69 62.9806 79.7736C62.9806 77.8573 63.3418 75.9964 63.9439 74.2745C64.1245 73.7745 64.3352 73.2746 64.576 72.7747C67.3454 67.0256 73.3959 62.9706 80.5 62.7762C80.6806 62.7484 80.8913 62.7484 81.102 62.7484C85.4066 62.7484 88.6275 64.0537 90.8852 65.498C92.0592 66.2478 93.6245 66.0812 94.6479 65.1647L98.8321 61.3875C100.157 60.1932 100.036 58.1657 98.5311 57.1659C93.7449 53.9164 87.9051 52 81.102 52C80.8913 52 80.7107 52 80.5 52.0278C68.9709 52.2222 59.0674 58.388 54.2209 67.3033C52.174 71.0805 51 75.3021 51 79.7736C51 84.2452 52.174 88.4668 54.2209 92.244H54.251C59.0975 101.159 69.001 107.325 80.5 107.519C80.7107 107.547 80.8913 107.547 81.102 107.547C89.2296 107.547 96.0627 105.075 101.03 100.826C106.719 95.9657 110 88.8556 110 80.3847C110 79.1904 109.94 78.1628 109.819 77.1907Z" fill="#042585"/>
    </g>
    <defs>
        <linearGradient id="paint0_linear_44_2" x1="34.0757" y1="-16.8011" x2="70.4902" y2="169.403" gradientUnits="userSpaceOnUse">
            <stop stop-color="#B9CFFF"/>
            <stop offset="1" stop-color="white" stop-opacity="0.79"/>
        </linearGradient>
        <clipPath id="clip0_44_2">
            <rect width="160" height="160" fill="white"/>
        </clipPath>
    </defs>
</svg>
