<svg width="160" height="160" viewBox="0 0 160 160" fill="none" xmlns="http://www.w3.org/2000/svg">
    <g clip-path="url(#clip0_44_2)">
        <path d="M156.54 77.4107V34.6675L113.73 2.74593C113.73 2.74593 82.5946 2.74594 80 2.74593C77.4055 2.74591 56.6487 2.74593 56.6487 2.74593L45.8379 2.74591L3.45949 34.6675V77.2981C3.45949 99.2691 16.7087 119.913 39.0998 132.83L80.2098 156.545L121.083 132.837C143.368 119.911 156.54 99.3187 156.54 77.4107Z" fill="url(#paint0_linear_44_2)"/>
        <path fill-rule="evenodd" clip-rule="evenodd" d="M44.4577 0L56.6487 1.76765e-05V1.92558C56.6487 1.7643e-05 56.6486 1.76765e-05 56.6487 1.76765e-05H113.729C113.73 1.76765e-05 113.73 1.7643e-05 113.73 2.74596L113.729 1.76765e-05L115.1 1.70218e-05L160 33.4796V77.4108C160 100.195 146.299 121.611 123.124 135.054L80.2153 159.943L37.066 135.051C13.7792 121.617 0 100.148 0 77.2981V33.4878L44.4577 0ZM112.36 5.49191H56.6496C56.6494 5.49191 56.6487 5.49191 56.6487 2.74596L56.6496 5.49191L47.218 5.4919L6.91892 35.8473V77.2981C6.91892 98.3903 19.638 118.208 41.1336 130.609L80.2041 153.148L119.041 130.62C140.435 118.211 153.081 98.4424 153.081 77.4108V35.8556L112.36 5.49191Z" fill="#0532B2"/>
        <path d="M113.307 44L105.308 52.1638L73.0815 83.685L63.6917 74.8409L55.3452 66.6772L39 82.6646L47.3465 90.8284L64.735 107.836L72.7338 116L81.0803 107.836L121.654 68.1512L130 59.9874L113.307 44Z" fill="#0532B2"/>
    </g>
    <defs>
        <linearGradient id="paint0_linear_44_2" x1="34.0757" y1="-16.8011" x2="70.4902" y2="169.403" gradientUnits="userSpaceOnUse">
            <stop stop-color="#B9CFFF"/>
            <stop offset="1" stop-color="white" stop-opacity="0.79"/>
        </linearGradient>
        <clipPath id="clip0_44_2">
            <rect width="160" height="160" fill="white"/>
        </clipPath>
    </defs>
</svg>
